# xmcd
#
# Track frame offsets:
# 150
# 9699
# 28287
# 38463
# 50537
# 73910
# 90160
# 97547
# 112354
# 124679
# 144878
# 162312
# 172943
# 198584
# 226485
# 244042
#
# Disc length: 3541 seconds
#
#
# Revision: 0
# Processed by: cddbd v1.5.1PL2 Copyright (c) Steve Scherf et al.
# Submitted via: FreeRIP 2.942 
#
DISCID=cd0dd310
DTITLE=mars ILL - Sound Methods 2.0
DYEAR=2004
DGENRE=Hip-Hop
TTITLE0=A Sound Method
TTITLE1=Chain Gang
TTITLE2=Spellbound (Prod. by Fred B)
TTITLE3=Stand Still (Prod. by Squashy Nice)
TTITLE4=Mona Lisa (f. Playdough, Jax and Lil' Sci)
TTITLE5=Backwater (Prod. by Beat Rabbi)
TTITLE6=It's OK (Prod. by Fred B)
TTITLE7=Souled Separately (Prod. by Meatyogre)
TTITLE8=Tales From Cloud 7 (Prod. by Fred B)
TTITLE9=My Life
TTITLE10=Our Song
TTITLE11=DJ Essence Freestyle
TTITLE12=Another (f. Rahlo)
TTITLE13=Shuck And Jive
TTITLE14=Lip Service (Prod. by Beat Rabbi)
TTITLE15=88.5 Freestyle
EXTD=
EXTT0=
EXTT1=
EXTT2=
EXTT3=
EXTT4=
EXTT5=
EXTT6=
EXTT7=
EXTT8=
EXTT9=
EXTT10=
EXTT11=
EXTT12=
EXTT13=
EXTT14=
EXTT15=
PLAYORDER=
